<svg xmlns="http://www.w3.org/2000/svg" width="980" height="620" viewBox="0 0 980 620">
<rect width="100%" height="100%" fill="white"/>
<text x="42.0" y="36.0" font-family="Arial" font-size="20" font-weight="600" text-anchor="start" fill="#222">Figure 4. Validation-tuned routing and escalation quality</text>
<text x="68.0" y="70.0" font-family="Arial" font-size="15" font-weight="600" text-anchor="start" fill="#222">A. Macro route F1: fixed vs tuned</text>
<rect x="68" y="88" width="390" height="220" fill="none" stroke="#333" stroke-width="1"/>
<line x1="68" y1="308.0" x2="458" y2="308.0" stroke="#e5e5e5"/>
<text x="60.0" y="312.0" font-family="Arial" font-size="11" font-weight="400" text-anchor="end" fill="#222">0.0</text>
<line x1="68" y1="264.0" x2="458" y2="264.0" stroke="#e5e5e5"/>
<text x="60.0" y="268.0" font-family="Arial" font-size="11" font-weight="400" text-anchor="end" fill="#222">0.2</text>
<line x1="68" y1="220.0" x2="458" y2="220.0" stroke="#e5e5e5"/>
<text x="60.0" y="224.0" font-family="Arial" font-size="11" font-weight="400" text-anchor="end" fill="#222">0.4</text>
<line x1="68" y1="176.0" x2="458" y2="176.0" stroke="#e5e5e5"/>
<text x="60.0" y="180.0" font-family="Arial" font-size="11" font-weight="400" text-anchor="end" fill="#222">0.6</text>
<line x1="68" y1="132.0" x2="458" y2="132.0" stroke="#e5e5e5"/>
<text x="60.0" y="136.0" font-family="Arial" font-size="11" font-weight="400" text-anchor="end" fill="#222">0.8</text>
<line x1="68" y1="88.0" x2="458" y2="88.0" stroke="#e5e5e5"/>
<text x="60.0" y="92.0" font-family="Arial" font-size="11" font-weight="400" text-anchor="end" fill="#222">1.0</text>
<rect x="106.0" y="167.9" width="44.0" height="140.1" fill="#f58518"/>
<title>Flat fixed macro route F1: 0.637</title>
<rect x="106.0" y="167.9" width="44.0" height="140.1" fill="none" stroke="#222" stroke-dasharray="4,3"/>
<line x1="128.0" y1="165.0" x2="128.0" y2="170.7" stroke="#222" stroke-width="1.2"/>
<line x1="124.0" y1="165.0" x2="132.0" y2="165.0" stroke="#222" stroke-width="1.2"/>
<line x1="124.0" y1="170.7" x2="132.0" y2="170.7" stroke="#222" stroke-width="1.2"/>
<text x="128.0" y="326.0" font-family="Arial" font-size="10" font-weight="400" text-anchor="middle" fill="#222">Flat fixed</text>
<text x="128.0" y="160.9" font-family="Arial" font-size="11" font-weight="500" text-anchor="middle" fill="#222">0.637</text>
<rect x="188.0" y="156.3" width="44.0" height="151.7" fill="#f58518"/>
<title>Flat tuned macro route F1: 0.690</title>
<line x1="210.0" y1="151.7" x2="210.0" y2="160.6" stroke="#222" stroke-width="1.2"/>
<line x1="206.0" y1="151.7" x2="214.0" y2="151.7" stroke="#222" stroke-width="1.2"/>
<line x1="206.0" y1="160.6" x2="214.0" y2="160.6" stroke="#222" stroke-width="1.2"/>
<text x="210.0" y="326.0" font-family="Arial" font-size="10" font-weight="400" text-anchor="middle" fill="#222">Flat tuned</text>
<text x="210.0" y="149.3" font-family="Arial" font-size="11" font-weight="500" text-anchor="middle" fill="#222">0.690</text>
<rect x="270.0" y="134.2" width="44.0" height="173.8" fill="#4c78a8"/>
<title>Hier fixed macro route F1: 0.790</title>
<rect x="270.0" y="134.2" width="44.0" height="173.8" fill="none" stroke="#222" stroke-dasharray="4,3"/>
<line x1="292.0" y1="131.7" x2="292.0" y2="137.4" stroke="#222" stroke-width="1.2"/>
<line x1="288.0" y1="131.7" x2="296.0" y2="131.7" stroke="#222" stroke-width="1.2"/>
<line x1="288.0" y1="137.4" x2="296.0" y2="137.4" stroke="#222" stroke-width="1.2"/>
<text x="292.0" y="326.0" font-family="Arial" font-size="10" font-weight="400" text-anchor="middle" fill="#222">Hier fixed</text>
<text x="292.0" y="127.2" font-family="Arial" font-size="11" font-weight="500" text-anchor="middle" fill="#222">0.790</text>
<rect x="352.0" y="133.1" width="44.0" height="174.9" fill="#54a24b"/>
<title>Hier tuned macro route F1: 0.795</title>
<line x1="374.0" y1="130.7" x2="374.0" y2="136.1" stroke="#222" stroke-width="1.2"/>
<line x1="370.0" y1="130.7" x2="378.0" y2="130.7" stroke="#222" stroke-width="1.2"/>
<line x1="370.0" y1="136.1" x2="378.0" y2="136.1" stroke="#222" stroke-width="1.2"/>
<text x="374.0" y="326.0" font-family="Arial" font-size="10" font-weight="400" text-anchor="middle" fill="#222">Hier tuned</text>
<text x="374.0" y="126.1" font-family="Arial" font-size="11" font-weight="500" text-anchor="middle" fill="#222">0.795</text>
<text x="540.0" y="70.0" font-family="Arial" font-size="15" font-weight="600" text-anchor="start" fill="#222">B. Tuned hierarchy vs ablations</text>
<rect x="540" y="88" width="365" height="220" fill="none" stroke="#333" stroke-width="1"/>
<line x1="540" y1="308.0" x2="905" y2="308.0" stroke="#e5e5e5"/>
<text x="532.0" y="312.0" font-family="Arial" font-size="11" font-weight="400" text-anchor="end" fill="#222">0.0</text>
<line x1="540" y1="264.0" x2="905" y2="264.0" stroke="#e5e5e5"/>
<text x="532.0" y="268.0" font-family="Arial" font-size="11" font-weight="400" text-anchor="end" fill="#222">0.2</text>
<line x1="540" y1="220.0" x2="905" y2="220.0" stroke="#e5e5e5"/>
<text x="532.0" y="224.0" font-family="Arial" font-size="11" font-weight="400" text-anchor="end" fill="#222">0.4</text>
<line x1="540" y1="176.0" x2="905" y2="176.0" stroke="#e5e5e5"/>
<text x="532.0" y="180.0" font-family="Arial" font-size="11" font-weight="400" text-anchor="end" fill="#222">0.6</text>
<line x1="540" y1="132.0" x2="905" y2="132.0" stroke="#e5e5e5"/>
<text x="532.0" y="136.0" font-family="Arial" font-size="11" font-weight="400" text-anchor="end" fill="#222">0.8</text>
<line x1="540" y1="88.0" x2="905" y2="88.0" stroke="#e5e5e5"/>
<text x="532.0" y="92.0" font-family="Arial" font-size="11" font-weight="400" text-anchor="end" fill="#222">1.0</text>
<rect x="566.0" y="133.1" width="44.0" height="174.9" fill="#54a24b"/>
<title>Full tuned macro route F1: 0.795</title>
<line x1="588.0" y1="130.7" x2="588.0" y2="136.1" stroke="#222" stroke-width="1.2"/>
<line x1="584.0" y1="130.7" x2="592.0" y2="130.7" stroke="#222" stroke-width="1.2"/>
<line x1="584.0" y1="136.1" x2="592.0" y2="136.1" stroke="#222" stroke-width="1.2"/>
<text x="588.0" y="326.0" font-family="Arial" font-size="10" font-weight="400" text-anchor="middle" fill="#222">Full</text>
<text x="588.0" y="126.1" font-family="Arial" font-size="11" font-weight="500" text-anchor="middle" fill="#222">0.795</text>
<rect x="648.0" y="118.4" width="44.0" height="189.6" fill="#e45756"/>
<title>No uncert. tuned macro route F1: 0.862</title>
<line x1="670.0" y1="115.0" x2="670.0" y2="122.3" stroke="#222" stroke-width="1.2"/>
<line x1="666.0" y1="115.0" x2="674.0" y2="115.0" stroke="#222" stroke-width="1.2"/>
<line x1="666.0" y1="122.3" x2="674.0" y2="122.3" stroke="#222" stroke-width="1.2"/>
<text x="670.0" y="326.0" font-family="Arial" font-size="10" font-weight="400" text-anchor="middle" fill="#222">No uncert.</text>
<text x="670.0" y="111.4" font-family="Arial" font-size="11" font-weight="500" text-anchor="middle" fill="#222">0.862</text>
<rect x="730.0" y="150.2" width="44.0" height="157.8" fill="#e45756"/>
<title>No sig. tuned macro route F1: 0.717</title>
<line x1="752.0" y1="147.8" x2="752.0" y2="152.3" stroke="#222" stroke-width="1.2"/>
<line x1="748.0" y1="147.8" x2="756.0" y2="147.8" stroke="#222" stroke-width="1.2"/>
<line x1="748.0" y1="152.3" x2="756.0" y2="152.3" stroke="#222" stroke-width="1.2"/>
<text x="752.0" y="326.0" font-family="Arial" font-size="10" font-weight="400" text-anchor="middle" fill="#222">No sig.</text>
<text x="752.0" y="143.2" font-family="Arial" font-size="11" font-weight="500" text-anchor="middle" fill="#222">0.717</text>
<rect x="812.0" y="138.1" width="44.0" height="169.9" fill="#e45756"/>
<title>No prov. tuned macro route F1: 0.772</title>
<line x1="834.0" y1="135.5" x2="834.0" y2="141.1" stroke="#222" stroke-width="1.2"/>
<line x1="830.0" y1="135.5" x2="838.0" y2="135.5" stroke="#222" stroke-width="1.2"/>
<line x1="830.0" y1="141.1" x2="838.0" y2="141.1" stroke="#222" stroke-width="1.2"/>
<text x="834.0" y="326.0" font-family="Arial" font-size="10" font-weight="400" text-anchor="middle" fill="#222">No prov.</text>
<text x="834.0" y="131.1" font-family="Arial" font-size="11" font-weight="500" text-anchor="middle" fill="#222">0.772</text>
<text x="68.0" y="367.0" font-family="Arial" font-size="15" font-weight="600" text-anchor="start" fill="#222">C. Missed product investigations under tuned routing (lower is better)</text>
<rect x="68" y="385" width="837" height="150" fill="none" stroke="#333" stroke-width="1"/>
<line x1="68" y1="535.0" x2="905" y2="535.0" stroke="#e5e5e5"/>
<text x="60.0" y="539.0" font-family="Arial" font-size="11" font-weight="400" text-anchor="end" fill="#222">0</text>
<line x1="68" y1="485.0" x2="905" y2="485.0" stroke="#e5e5e5"/>
<text x="60.0" y="489.0" font-family="Arial" font-size="11" font-weight="400" text-anchor="end" fill="#222">256</text>
<line x1="68" y1="435.0" x2="905" y2="435.0" stroke="#e5e5e5"/>
<text x="60.0" y="439.0" font-family="Arial" font-size="11" font-weight="400" text-anchor="end" fill="#222">511</text>
<line x1="68" y1="385.0" x2="905" y2="385.0" stroke="#e5e5e5"/>
<text x="60.0" y="389.0" font-family="Arial" font-size="11" font-weight="400" text-anchor="end" fill="#222">767</text>
<rect x="120.7" y="419.6" width="62.0" height="115.4" fill="#f58518"/>
<title>Learned flat missed product investigations: 589.850</title>
<line x1="151.7" y1="401.1" x2="151.7" y2="433.9" stroke="#222" stroke-width="1.2"/>
<line x1="147.7" y1="401.1" x2="155.7" y2="401.1" stroke="#222" stroke-width="1.2"/>
<line x1="147.7" y1="433.9" x2="155.7" y2="433.9" stroke="#222" stroke-width="1.2"/>
<text x="151.7" y="553.0" font-family="Arial" font-size="10" font-weight="400" text-anchor="middle" fill="#222">Learned flat</text>
<text x="151.7" y="412.6" font-family="Arial" font-size="11" font-weight="500" text-anchor="middle" fill="#222">590</text>
<rect x="288.1" y="512.4" width="62.0" height="22.6" fill="#54a24b"/>
<title>Learned hierarchy missed product investigations: 115.627</title>
<line x1="319.1" y1="507.0" x2="319.1" y2="517.4" stroke="#222" stroke-width="1.2"/>
<line x1="315.1" y1="507.0" x2="323.1" y2="507.0" stroke="#222" stroke-width="1.2"/>
<line x1="315.1" y1="517.4" x2="323.1" y2="517.4" stroke="#222" stroke-width="1.2"/>
<text x="319.1" y="553.0" font-family="Arial" font-size="10" font-weight="400" text-anchor="middle" fill="#222">Learned hierarchy</text>
<text x="319.1" y="505.4" font-family="Arial" font-size="11" font-weight="500" text-anchor="middle" fill="#222">116</text>
<rect x="455.5" y="504.6" width="62.0" height="30.4" fill="#e45756"/>
<title>No uncertainty missed product investigations: 155.550</title>
<line x1="486.5" y1="501.0" x2="486.5" y2="508.4" stroke="#222" stroke-width="1.2"/>
<line x1="482.5" y1="501.0" x2="490.5" y2="501.0" stroke="#222" stroke-width="1.2"/>
<line x1="482.5" y1="508.4" x2="490.5" y2="508.4" stroke="#222" stroke-width="1.2"/>
<text x="486.5" y="553.0" font-family="Arial" font-size="10" font-weight="400" text-anchor="middle" fill="#222">No uncertainty</text>
<text x="486.5" y="497.6" font-family="Arial" font-size="11" font-weight="500" text-anchor="middle" fill="#222">156</text>
<rect x="622.9" y="419.7" width="62.0" height="115.3" fill="#e45756"/>
<title>No signature missed product investigations: 589.650</title>
<line x1="653.9" y1="403.0" x2="653.9" y2="434.8" stroke="#222" stroke-width="1.2"/>
<line x1="649.9" y1="403.0" x2="657.9" y2="403.0" stroke="#222" stroke-width="1.2"/>
<line x1="649.9" y1="434.8" x2="657.9" y2="434.8" stroke="#222" stroke-width="1.2"/>
<text x="653.9" y="553.0" font-family="Arial" font-size="10" font-weight="400" text-anchor="middle" fill="#222">No signature</text>
<text x="653.9" y="412.7" font-family="Arial" font-size="11" font-weight="500" text-anchor="middle" fill="#222">590</text>
<rect x="790.3" y="511.6" width="62.0" height="23.4" fill="#e45756"/>
<title>No provenance missed product investigations: 119.813</title>
<line x1="821.3" y1="506.5" x2="821.3" y2="516.2" stroke="#222" stroke-width="1.2"/>
<line x1="817.3" y1="506.5" x2="825.3" y2="506.5" stroke="#222" stroke-width="1.2"/>
<line x1="817.3" y1="516.2" x2="825.3" y2="516.2" stroke="#222" stroke-width="1.2"/>
<text x="821.3" y="553.0" font-family="Arial" font-size="10" font-weight="400" text-anchor="middle" fill="#222">No provenance</text>
<text x="821.3" y="504.6" font-family="Arial" font-size="11" font-weight="500" text-anchor="middle" fill="#222">120</text>
<text x="68.0" y="594.0" font-family="Arial" font-size="12" font-weight="400" text-anchor="start" fill="#222">Whiskers show 95% scenario-bootstrap intervals. Dashed bar outlines indicate fixed policies.</text>
</svg>